# xmcd
#
# Track frame offsets: 
#        150
#        13730
#        32052
#        42205
#        61942
#        74522
#        85930
#        99217
#        111642
#        132360
#        143927
#        161227
#
# Disc length: 2365 seconds
#
# Revision: 3
# Processed by: cddbd v1.5.2PL0 Copyright (c) Steve Scherf et al.
# Submitted via: ExactAudioCopy v0.95a5
#
DISCID=aa093b0c
DTITLE=Jo Dee Messina - A Joyful Noise
DYEAR=2002
DGENRE=Christmas
TTITLE0=Winter Wonderland
TTITLE1=I'll Be Home For Christmas
TTITLE2=Let It Snow! Let It Snow! Let It Snow!
TTITLE3=The Christmas Song
TTITLE4=Silver Bells
TTITLE5=Sleigh Ride
TTITLE6=Have Yourself A Merry Little Christmas
TTITLE7=What Child Is This?
TTITLE8=O Holy Night
TTITLE9=Silent Night
TTITLE10=A Joyful Noise
TTITLE11=Keep The Faith (Bonus Track)
EXTD=Christmas Album Produced By Jo Dee Messina and Brent Maher\nDistrib
EXTD=utedby Curb Records Inc
EXTT0=
EXTT1=
EXTT2=
EXTT3=
EXTT4=
EXTT5=
EXTT6=
EXTT7=
EXTT8=
EXTT9=
EXTT10=
EXTT11=
PLAYORDER=
